<?xml version="1.0" encoding="utf-8"?>
<!-- Generator: Adobe Illustrator 19.0.0, SVG Export Plug-In . SVG Version: 6.00 Build 0)  -->
<svg version="1.1" id="Laag_1" xmlns="http://www.w3.org/2000/svg" xmlns:xlink="http://www.w3.org/1999/xlink" x="0px" y="0px"
	 viewBox="0 0 300 69" style="enable-background:new 0 0 300 69;" xml:space="preserve">
<style type="text/css">
	.st0{fill:#FFFFFF;}
</style>
<g id="XMLID_2_">
	<path id="XMLID_3_" class="st0" d="M21,13.9c0.2,0.1,0.4,0.1,0.7,0.1s0.5,0,0.7,0c1.3,0.1,2.7,0.3,4,0.6c1.3,0.4,2.5,0.9,3.7,1.6
		c0.7,0.3,1.3,0.6,1.9,1c0.6,0.4,1.1,0.9,1.7,1.4c1.4,1.3,2.5,2.8,3.4,4.4c0.9,1.7,1.4,3.5,1.6,5.3v22.8h-6.6V30
		c-0.1-0.7-0.2-1.5-0.4-2.3c-0.2-0.8-0.6-1.5-1-2.2c-0.8-1.4-1.9-2.5-3.2-3.4c-1.3-0.9-2.8-1.5-4.4-1.8c-0.4-0.1-0.8-0.2-1.2-0.2
		c-0.5,0-0.9,0-1.3,0c-0.2,0-0.3,0-0.5,0c-0.2,0-0.4,0-0.5,0.1c-0.2,0-0.3,0-0.5,0c-0.2,0-0.4,0-0.5,0c-1.7,0.1-3.2,0.5-4.6,1.2
		s-2.6,1.8-3.5,3.2C9.5,25.8,9,27,8.6,28.2c-0.4,1.3-0.6,2.6-0.6,4c0,0.2,0,0.3,0,0.5c0,0.2,0,0.4,0,0.6s0,0.4,0,0.6
		c0,0.2,0.1,0.4,0.1,0.5c0.1,0.8,0.2,1.6,0.4,2.4c0.2,0.8,0.5,1.5,0.9,2.3c0.4,0.7,0.8,1.3,1.3,2c0.5,0.6,1,1.2,1.5,1.7
		c0.6,0.5,1.2,1,1.9,1.4c0.7,0.4,1.4,0.7,2.2,0.9c0.6,0.2,1.2,0.4,1.8,0.5c0.6,0.1,1.3,0.2,1.9,0.2c0.1,0,0.2,0,0.3,0
		c0.1,0,0.1,0,0.2-0.1c0.1,0,0.2,0,0.3,0c0.1,0,0.1,0,0.2,0c0.7-0.1,1.5-0.2,2.1-0.4c0.7-0.2,1.3-0.5,2-0.9c0.7-0.4,1.3-0.9,2-1.5
		c0.6-0.6,1.1-1.2,1.6-1.8v7.7c-1.2,0.9-2.6,1.6-4,2.1s-2.9,0.8-4.5,0.9c-0.3,0.1-0.6,0.1-0.9,0.1c-0.3,0-0.6,0-0.9,0
		c-0.6-0.1-1.3-0.1-1.9-0.2c-0.6-0.1-1.2-0.2-1.8-0.4c-1-0.2-2-0.6-2.9-1c-0.9-0.5-1.8-1-2.7-1.7c-0.7-0.6-1.5-1.2-2.2-1.9
		c-0.7-0.7-1.3-1.4-1.9-2.1c-0.6-0.8-1.1-1.6-1.6-2.5c-0.5-0.9-0.9-1.8-1.2-2.7c-0.3-1.1-0.6-2.1-0.7-3.2c-0.2-1.1-0.2-2.2-0.2-3.3
		c0-1,0.1-2,0.2-3c0.2-1,0.4-2,0.6-2.9c0.3-1,0.7-2,1.2-2.9c0.5-0.9,1-1.8,1.6-2.7c0.6-0.7,1.2-1.4,1.9-2.1c0.7-0.6,1.4-1.2,2.1-1.8
		c0.7-0.6,1.6-1.1,2.4-1.5c0.9-0.4,1.8-0.7,2.7-1c1.1-0.3,2.3-0.6,3.4-0.7C18.7,13.9,19.9,13.9,21,13.9L21,13.9z"/>
	<path id="XMLID_5_" class="st0" d="M64.5,13.9c1.2,0,2.3,0.1,3.5,0.2c1.1,0.1,2.3,0.4,3.4,0.7c2.2,0.8,4.2,2,6,3.5
		c1.8,1.5,3.3,3.3,4.4,5.3c0.5,1,0.9,2.1,1.2,3.2c0.3,1.1,0.5,2.2,0.6,3.4c0,0.2,0,0.4,0,0.6c0,0.2,0,0.4,0,0.6
		c0.1,0.2,0.1,0.4,0.1,0.6c0,0.2,0,0.4,0,0.6c0,0.8,0,1.6-0.1,2.4c-0.1,0.8-0.2,1.5-0.4,2.3c-0.3,1.2-0.6,2.3-1.1,3.4
		s-1.1,2.2-1.8,3.2c-0.6,1-1.3,1.9-2.1,2.8c-0.8,0.8-1.7,1.6-2.6,2.3c-1,0.6-2,1.2-3.1,1.6c-1.1,0.4-2.2,0.7-3.3,0.8
		c-0.3,0.1-0.7,0.2-1,0.2c-0.3,0-0.7,0.1-1.1,0.1c-0.4,0.1-0.7,0.1-1.1,0.1c-0.3,0-0.7,0-1,0c-0.2,0-0.4,0-0.7,0c-0.2,0-0.5,0-0.7,0
		c-0.3,0-0.5,0-0.7,0c-0.2,0-0.5-0.1-0.7-0.1c-1.2-0.1-2.4-0.4-3.5-0.8s-2.1-1-3-1.8v-6.8c0.9,0.8,1.8,1.5,2.8,2
		c1,0.5,2.1,0.9,3.2,1.2c0.5,0.1,1.1,0.2,1.6,0.3c0.5,0.1,1,0.1,1.6,0c0.3,0,0.5,0,0.8,0c0.2,0,0.5,0,0.8-0.1c0.2,0,0.5,0,0.7-0.1
		c0.3-0.1,0.5-0.1,0.7-0.2c0.9-0.2,1.7-0.5,2.5-0.9c0.8-0.4,1.5-0.9,2.2-1.4c1.5-1.1,2.6-2.5,3.4-4.2c0.8-1.7,1.2-3.4,1.1-5.2
		c0.1-1.2,0.1-2.3-0.1-3.4c-0.2-1.1-0.5-2.2-0.9-3.3c-0.5-0.9-1.1-1.7-1.7-2.5c-0.6-0.8-1.3-1.5-2-2.2c-0.7-0.5-1.4-0.9-2.2-1.2
		c-0.7-0.3-1.5-0.6-2.4-0.8c-0.5-0.1-1.1-0.2-1.6-0.3c-0.5-0.1-1-0.1-1.6-0.1c-0.2,0-0.3,0-0.5,0s-0.3,0-0.4,0.1c-0.2,0-0.3,0-0.5,0
		c-0.2,0-0.3,0-0.5,0c-2,0.4-3.7,1.2-5.3,2.4c-1.5,1.2-2.7,2.8-3.5,4.6c-0.4,1.2-0.7,2.4-0.9,3.6c-0.2,1.2-0.3,2.5-0.3,3.8v33.6
		h-6.6V31.1c0.1-1.1,0.2-2.3,0.5-3.4c0.3-1.1,0.6-2.2,1.1-3.2c0.5-1.1,1.1-2.1,1.8-3c0.6-0.9,1.4-1.8,2.2-2.6
		c0.8-0.8,1.7-1.5,2.7-2.2c1-0.6,2-1.2,3.1-1.6c1.1-0.4,2.2-0.7,3.3-0.9C62.2,14,63.4,13.9,64.5,13.9L64.5,13.9z"/>
	<path id="XMLID_7_" class="st0" d="M108.6,13.9c1.2,0,2.3,0.1,3.5,0.2c1.1,0.1,2.3,0.4,3.4,0.7c2.2,0.8,4.2,2,6,3.5
		c1.8,1.5,3.3,3.3,4.4,5.3c0.5,1,0.9,2.1,1.2,3.2c0.3,1.1,0.5,2.2,0.6,3.4c0,0.2,0,0.4,0,0.6c0,0.2,0,0.4,0,0.6
		c0.1,0.2,0.1,0.4,0.1,0.6c0,0.2,0,0.4,0,0.6c0,0.8,0,1.6-0.1,2.4c-0.1,0.8-0.2,1.5-0.4,2.3c-0.3,1.2-0.6,2.3-1.1,3.4
		s-1.1,2.2-1.8,3.2c-0.6,1-1.3,1.9-2.1,2.8c-0.8,0.8-1.7,1.6-2.6,2.3c-1,0.6-2,1.2-3.1,1.6c-1.1,0.4-2.2,0.7-3.3,0.8
		c-0.3,0.1-0.7,0.2-1,0.2c-0.3,0-0.7,0.1-1.1,0.1c-0.4,0.1-0.7,0.1-1.1,0.1c-0.3,0-0.7,0-1,0c-0.2,0-0.4,0-0.7,0c-0.2,0-0.5,0-0.7,0
		c-0.3,0-0.5,0-0.7,0c-0.2,0-0.5-0.1-0.7-0.1c-1.2-0.1-2.4-0.4-3.5-0.8s-2.1-1-3-1.8v-6.8c0.9,0.8,1.8,1.5,2.8,2
		c1,0.5,2.1,0.9,3.2,1.2c0.5,0.1,1.1,0.2,1.6,0.3c0.5,0.1,1,0.1,1.6,0c0.3,0,0.5,0,0.8,0c0.2,0,0.5,0,0.8-0.1c0.2,0,0.5,0,0.7-0.1
		c0.3-0.1,0.5-0.1,0.7-0.2c0.9-0.2,1.7-0.5,2.5-0.9c0.8-0.4,1.5-0.9,2.2-1.4c1.5-1.1,2.6-2.5,3.4-4.2c0.8-1.7,1.2-3.4,1.1-5.2
		c0.1-1.2,0.1-2.3-0.1-3.4c-0.2-1.1-0.5-2.2-0.9-3.3c-0.5-0.9-1.1-1.7-1.7-2.5c-0.6-0.8-1.3-1.5-2-2.2c-0.7-0.5-1.4-0.9-2.2-1.2
		c-0.7-0.3-1.5-0.6-2.4-0.8c-0.5-0.1-1.1-0.2-1.6-0.3c-0.5-0.1-1-0.1-1.6-0.1c-0.2,0-0.3,0-0.5,0s-0.3,0-0.4,0.1c-0.2,0-0.3,0-0.5,0
		c-0.2,0-0.3,0-0.5,0c-2,0.4-3.7,1.2-5.3,2.4c-1.5,1.2-2.7,2.8-3.5,4.6c-0.4,1.2-0.7,2.4-0.9,3.6c-0.2,1.2-0.3,2.5-0.3,3.8v33.6
		h-6.6V31.1c0.1-1.1,0.2-2.3,0.5-3.4c0.3-1.1,0.6-2.2,1.1-3.2c0.5-1.1,1.1-2.1,1.8-3c0.6-0.9,1.4-1.8,2.2-2.6
		c0.8-0.8,1.7-1.5,2.7-2.2c1-0.6,2-1.2,3.1-1.6c1.1-0.4,2.2-0.7,3.3-0.9C106.3,14,107.5,13.9,108.6,13.9L108.6,13.9z"/>
	<path id="XMLID_9_" class="st0" d="M153.8,13.8c0.9,0,1.8,0.1,2.8,0.2c0.9,0.2,1.8,0.4,2.7,0.7c1.3,0.5,2.6,1.1,3.8,1.8
		c1.2,0.7,2.3,1.6,3.3,2.6c1,1,1.9,2.1,2.7,3.4c0.8,1.2,1.4,2.5,1.8,3.9c0.4,1.3,0.7,2.7,0.8,4.2c0.1,1.4,0.1,2.9,0,4.3
		c-0.1,1.4-0.4,2.7-0.9,4.1c-0.5,1.3-1.1,2.6-1.8,3.8c-0.7,1.2-1.6,2.4-2.6,3.4c-1,1-2.1,2-3.4,2.8c-1.2,0.7-2.4,1.3-3.8,1.7
		c-1.4,0.4-2.7,0.7-4.1,0.8c-0.3,0.1-0.5,0.1-0.8,0.1c-0.2,0-0.5,0-0.8,0c-0.3,0.1-0.5,0.1-0.8,0.1c-0.2,0-0.5,0-0.8,0
		c-0.9,0-1.8-0.1-2.7-0.2c-0.9-0.1-1.8-0.3-2.7-0.5c-1.3-0.4-2.6-1-3.9-1.7c-1.3-0.7-2.4-1.5-3.5-2.4c-1-1-1.9-2.1-2.8-3.3
		c-0.8-1.2-1.5-2.5-2-3.8c-0.4-1.1-0.7-2.1-0.9-3.2c-0.2-1.1-0.3-2.2-0.3-3.3c0-0.2,0-0.3,0-0.5c0-0.2,0-0.3,0-0.5
		c0-0.1,0-0.2,0-0.4c0-0.2,0-0.3,0-0.5c0.1-1.4,0.4-2.9,0.8-4.2c0.5-1.4,1-2.7,1.7-3.9c0.7-1.2,1.6-2.4,2.5-3.4c0.9-1,2-2,3.2-2.8
		c1.2-0.8,2.5-1.5,3.8-2c1.3-0.5,2.7-0.9,4.1-1.1c0.7-0.1,1.4-0.2,2.1-0.2C152.4,13.8,153.1,13.8,153.8,13.8L153.8,13.8z
		 M154.8,20.3c-0.2,0-0.4,0-0.6,0c-0.2,0-0.4,0-0.5,0c-0.2-0.1-0.4-0.1-0.6-0.1c-0.2,0-0.4,0-0.6,0c-0.3,0-0.5,0-0.8,0
		c-0.3,0-0.5,0-0.8,0c-0.3,0.1-0.5,0.1-0.8,0.2c-0.3,0.1-0.5,0.1-0.8,0.2c-1.1,0.3-2.1,0.7-3,1.2c-0.9,0.6-1.7,1.3-2.5,2.1
		c-0.6,0.7-1.2,1.4-1.7,2.2c-0.5,0.7-0.9,1.6-1.2,2.5c-0.2,0.9-0.4,1.8-0.5,2.8c-0.1,1-0.1,1.9-0.1,2.9c0.1,0.9,0.2,1.8,0.5,2.7
		c0.3,0.9,0.6,1.8,1,2.6c0.4,0.9,1,1.6,1.6,2.3c0.6,0.7,1.3,1.3,2.1,1.9c0.8,0.5,1.6,1,2.5,1.3c0.9,0.3,1.8,0.6,2.7,0.7
		c0.3,0.1,0.6,0.1,1,0.1c0.3,0,0.6,0,0.9,0c0.6,0,1.3-0.1,1.9-0.2c0.6-0.1,1.3-0.3,1.8-0.5c0.9-0.3,1.7-0.6,2.5-1.1
		c0.8-0.5,1.5-1.1,2.2-1.8c0.7-0.6,1.3-1.3,1.8-2.1c0.5-0.8,1-1.6,1.3-2.5c0.3-0.6,0.5-1.3,0.6-1.9c0.1-0.6,0.2-1.3,0.2-2
		c0-0.3,0-0.5,0-0.8c0-0.3,0-0.6-0.1-0.8c0.1-1,0-1.9-0.2-2.8c-0.2-0.9-0.5-1.8-1-2.6c-0.4-0.9-1-1.7-1.6-2.4
		c-0.6-0.7-1.3-1.3-2.1-1.9c-0.7-0.6-1.6-1.1-2.4-1.4C156.7,20.7,155.7,20.5,154.8,20.3L154.8,20.3z"/>
	<path id="XMLID_12_" class="st0" d="M185.7,1.5c0.7,0,1.3,0.1,1.9,0.4c0.6,0.3,1.1,0.7,1.4,1.2c0.2,0.2,0.3,0.5,0.4,0.7
		c0.1,0.3,0.3,0.5,0.4,0.8c0,0.1,0,0.2,0,0.3c0,0.1,0,0.2,0,0.3c0,0.1,0,0.1,0,0.2c0,0.1,0,0.1,0,0.2c0,0.1,0,0.2,0,0.2
		c0,0.1,0,0.1,0,0.2c0,0.2,0,0.3,0,0.4c0,0.1,0,0.3,0,0.4c-0.1,0.1-0.1,0.2-0.2,0.4c-0.1,0.1-0.1,0.3-0.2,0.4
		c-0.2,0.3-0.4,0.6-0.7,0.9c-0.2,0.3-0.5,0.5-0.8,0.7c-0.4,0.2-0.9,0.3-1.4,0.4s-1,0.1-1.4,0.1c-0.4-0.1-0.7-0.2-1.1-0.3
		c-0.3-0.2-0.7-0.3-1-0.6c-0.3-0.3-0.6-0.6-0.8-0.9c-0.2-0.3-0.4-0.7-0.6-1.1c0-0.1,0-0.1,0-0.2s0-0.1,0-0.2
		c-0.1-0.1-0.1-0.1-0.1-0.2s0-0.1,0-0.2c0.1-0.7,0.2-1.4,0.5-2.1c0.3-0.6,0.7-1.2,1.2-1.8c0.3-0.2,0.5-0.3,0.8-0.4
		c0.3-0.1,0.6-0.2,0.8-0.2c0.1-0.1,0.2-0.1,0.3-0.1C185.5,1.5,185.6,1.5,185.7,1.5L185.7,1.5z M182.5,14.1h7v37.2h-7V14.1z"/>
	<path id="XMLID_15_" class="st0" d="M214.3,13.9c0.2,0.1,0.4,0.1,0.6,0c0.2,0,0.4,0,0.6,0c0.2-0.1,0.4-0.1,0.6-0.1
		c0.2,0,0.4,0,0.6,0c0.7,0,1.5,0,2.3,0.1c0.8,0.1,1.5,0.2,2.3,0.4c0.9,0.2,1.7,0.4,2.4,0.8c0.8,0.3,1.5,0.8,2.2,1.2
		c1.5,1.1,2.9,2.4,4,3.9c1.1,1.5,1.9,3.3,2.3,5.1v25.8h-6.8V28.6c-0.1-0.7-0.2-1.4-0.4-2c-0.2-0.7-0.5-1.3-0.9-2
		c-0.6-1.2-1.4-2.2-2.5-3c-1.1-0.8-2.3-1.3-3.7-1.4c-0.2,0-0.3,0-0.4,0c-0.1,0-0.3,0-0.4,0c-0.1-0.1-0.2-0.1-0.4-0.1
		c-0.1,0-0.3,0-0.4,0c-0.4,0-0.9,0-1.3,0.1c-0.5,0.1-0.9,0.2-1.3,0.4c-1.3,0.3-2.4,0.9-3.4,1.8c-1,0.9-1.7,1.9-2.1,3.1
		c-0.1,0.5-0.2,1.1-0.3,1.6c-0.1,0.5-0.2,1-0.2,1.5c-0.1,0.5-0.1,1.1-0.1,1.6c0,0.5,0,1.1,0,1.6v19.5h-6.9V29.4c0-2,0.4-3.9,1.2-5.8
		c0.8-1.9,1.8-3.6,3.2-5.1c1.3-1.2,2.7-2.2,4.3-3C210.9,14.7,212.5,14.2,214.3,13.9L214.3,13.9z"/>
	<path id="XMLID_17_" class="st0" d="M241.4,4.5h6.9v9.6h13.6v6.2h-13.4v21c0,0.2,0,0.3,0,0.4c0,0.1,0,0.2,0,0.3
		c0.1,0.4,0.3,0.8,0.4,1.2c0.2,0.4,0.4,0.7,0.8,1c0.4,0.3,0.9,0.6,1.5,0.7c0.6,0.2,1.1,0.3,1.6,0.3l8.9-0.1v6.1h-11.1
		c-0.7-0.1-1.4-0.2-2.1-0.4c-0.7-0.2-1.3-0.5-1.9-0.9c-0.7-0.4-1.3-0.8-2-1.4c-0.6-0.5-1.1-1.1-1.6-1.8c-0.4-0.6-0.7-1.2-0.9-1.8
		c-0.2-0.6-0.4-1.2-0.5-1.9c-0.1-0.3-0.1-0.6-0.1-0.9c0-0.3,0-0.6,0-0.8c-0.1-0.3-0.1-0.5-0.1-0.8c0-0.3,0-0.6,0-0.9V4.5z"/>
	<path id="XMLID_19_" class="st0" d="M266.7,14.1h7.2v23.2c0,0.9,0.1,1.8,0.4,2.6c0.3,0.9,0.7,1.7,1.2,2.4c0.9,1,2,1.8,3.3,2.3
		c1.3,0.5,2.7,0.8,4,0.7c1.2,0.1,2.4-0.2,3.5-0.6c1.1-0.5,2-1.2,2.8-2.1c0.6-0.7,1-1.6,1.3-2.4c0.3-0.9,0.5-1.8,0.5-2.7V14.1h7.2
		v23.1c0,0.3,0,0.6,0,0.8c0,0.2,0,0.5,0,0.8c-0.1,0.5-0.1,1.1-0.2,1.6c-0.1,0.5-0.3,1-0.5,1.5c-0.3,0.8-0.6,1.6-1,2.3
		c-0.4,0.7-0.9,1.4-1.4,2.1c-0.4,0.6-0.9,1.1-1.4,1.6c-0.5,0.5-1.1,1-1.7,1.4c-0.9,0.5-1.8,1-2.7,1.3c-0.9,0.3-1.9,0.6-2.9,0.8v16.1
		h-7.2V51.4c-1.2-0.2-2.3-0.4-3.4-0.8c-1.1-0.4-2.1-0.9-3-1.6c-0.7-0.4-1.3-0.9-2-1.5s-1.2-1.2-1.7-1.8c-0.6-0.8-1.2-1.7-1.6-2.6
		c-0.4-1-0.7-1.9-0.9-3V14.1z"/>
</g>
</svg>
